<svg width="399" height="404" viewBox="0 0 399 404" fill="none" xmlns="http://www.w3.org/2000/svg">
<g clip-path="url(#clip0_3_2)">
<path d="M270.532 278.548L274.327 286.238L282.825 287.47L276.678 293.461L278.123 301.916L270.532 297.922L262.941 301.916L264.4 293.461L258.253 287.47L266.736 286.238L270.532 278.548Z" fill="#FF0004"/>
<path d="M309.38 254.203L312.396 260.307L319.138 261.298L314.266 266.057L315.413 272.77L309.38 269.597L303.346 272.77L304.494 266.057L299.608 261.298L306.363 260.307L309.38 254.203Z" fill="#FF0004"/>
<path d="M348.213 229.843L350.451 234.389L355.465 235.112L351.839 238.652L352.689 243.637L348.213 241.272L343.738 243.637L344.588 238.652L340.976 235.112L345.976 234.389L348.213 229.843Z" fill="#FF0004"/>
<path d="M387.061 205.498L388.52 208.458L391.777 208.939L389.426 211.234L389.978 214.491L387.061 212.961L384.129 214.491L384.696 211.234L382.331 208.939L385.602 208.458L387.061 205.498Z" fill="#FF0004"/>
<path d="M128.468 278.548L124.673 286.238L116.175 287.47L122.322 293.461L120.877 301.916L128.468 297.922L136.059 301.916L134.6 293.461L140.747 287.47L132.264 286.238L128.468 278.548Z" fill="#FF0004"/>
<path d="M89.6203 254.203L86.6037 260.307L79.8623 261.298L84.7484 266.057L83.587 272.77L89.6203 269.597L95.6535 272.77L94.5063 266.057L99.3924 261.298L92.6369 260.307L89.6203 254.203Z" fill="#FF0004"/>
<path d="M50.7867 229.843L48.549 234.389L43.5355 235.112L47.1611 238.652L46.3114 243.637L50.7867 241.272L55.2621 243.637L54.4123 238.652L58.0379 235.112L53.0244 234.389L50.7867 229.843Z" fill="#FF0004"/>
<path d="M11.9389 205.498L10.4802 208.458L7.22278 208.939L9.58792 211.234L9.02142 214.491L11.9389 212.961L14.8705 214.491L14.304 211.234L16.6692 208.939L13.4118 208.458L11.9389 205.498Z" fill="#FF0004"/>
<path d="M151.128 168.491L198.827 251.299L200.088 251.682L247.844 168.491L398.986 81.8309L372.998 126.556L266.524 187.469L200.088 303.559C198.204 301.93 196.929 299.324 195.669 297.186C174.199 260.944 153.946 223.937 132.589 187.625L25.9599 126.584L0 82.1283L0.297412 81.2219L151.128 168.505V168.491Z" fill="black"/>
<path d="M153.776 235.636L56.4801 179.439L30.8743 134.954L128.156 191.151C133.524 199.465 138.481 208.104 143.381 216.686C146.95 222.918 150.646 229.163 153.762 235.636H153.776Z" fill="black"/>
<path d="M245.209 235.636C244.912 235.31 248.283 229.347 248.807 228.427C255.831 215.851 263.352 203.458 270.829 191.151L368.112 134.954L342.506 179.439L245.209 235.636Z" fill="black"/>
<path d="M159.796 245.054C166.806 258.692 175.842 271.693 182.923 285.233C183.475 286.295 184.906 288.193 184.367 289.354L88.629 233.766L85.9523 230.891L62.3859 189.296L159.81 245.054H159.796Z" fill="black"/>
<path d="M336.614 189.31L311.731 232.973L214.321 288.745L239.474 244.87L336.614 189.31Z" fill="black"/>
<path d="M47.7135 64.2127C49.498 62.3575 51.0417 62.4566 52.4296 63.802L56.3809 67.5834C57.7972 68.943 57.9671 70.4726 56.1827 72.342L53.8317 74.7921L58.3637 79.1542L55.5737 82.0575L42.5725 69.5803L47.7135 64.2269V64.2127ZM50.0361 67.1019C49.6679 66.7478 49.3847 66.7478 49.0164 67.1444L47.5011 68.7164L51.679 72.7244L53.1944 71.1524C53.5626 70.77 53.5626 70.4867 53.1944 70.1327L50.0503 67.1161L50.0361 67.1019Z" fill="black"/>
<path d="M70.8408 58.2079L70.3026 58.661L74.608 63.8587L71.5064 66.4221L60.0206 52.557L65.7281 47.8267C67.7109 46.1839 69.2404 46.4671 70.4584 47.9542L73.6733 51.8347C74.6647 53.0385 74.8488 54.2707 73.8432 55.5878L80.6554 58.8452L77.313 61.6069L70.8266 58.222L70.8408 58.2079ZM68.4756 56.4517L70.161 55.0638C70.5717 54.7239 70.6142 54.469 70.2884 54.0724L67.7109 50.9567C67.3851 50.5601 67.1019 50.5318 66.6912 50.8858L65.0058 52.2738L68.4756 56.4659V56.4517Z" fill="black"/>
<path d="M85.6831 33.3951C87.85 31.993 89.3229 32.4462 90.3709 34.0608L96.7865 43.9179C97.8487 45.5607 97.6646 47.0903 95.5119 48.5065L92.3253 50.5742C90.1585 51.9763 88.6572 51.5373 87.595 49.8944L81.1794 40.0373C80.1314 38.4228 80.3297 36.8649 82.4965 35.4629L85.6831 33.3951ZM87.2835 36.7375C87.0002 36.3126 86.7311 36.256 86.2779 36.5392L85.1308 37.2757C84.6634 37.5872 84.5926 37.8563 84.8758 38.2812L90.6825 47.2177C90.9657 47.6426 91.2348 47.6992 91.7022 47.3877L92.8493 46.6512C93.3025 46.3538 93.3592 46.0847 93.0759 45.6599L87.2693 36.7375H87.2835Z" fill="black"/>
<path d="M110.524 19.7L117.138 33.0128C118.002 34.7689 117.62 36.2843 115.311 37.4315L111.912 39.1168C109.604 40.264 108.187 39.6408 107.309 37.8847L100.695 24.5578L104.321 22.7591L110.694 35.5903C110.921 36.0435 111.19 36.1285 111.671 35.9019L112.889 35.2929C113.399 35.038 113.484 34.7689 113.258 34.3157L106.884 21.4845L110.51 19.6859L110.524 19.7Z" fill="black"/>
<path d="M130.706 11.599C133.128 10.7351 134.487 11.5141 135.139 13.3269L139.09 24.3878C139.741 26.2289 139.189 27.6876 136.767 28.5515L129.7 31.0725L123.639 14.1058L130.706 11.5849V11.599ZM131.442 15.0405C131.272 14.559 130.989 14.4457 130.479 14.6298L128.369 15.3804L132.561 27.1211L134.671 26.3705C135.181 26.1864 135.323 25.9315 135.153 25.4499L131.442 15.0547V15.0405Z" fill="black"/>
<path d="M172.882 4.58862L169.61 5.11263L171.961 19.9691L167.953 20.6064L165.602 5.74994L162.359 6.25979L161.892 3.32816L172.414 1.65698L172.882 4.60278V4.58862Z" fill="black"/>
<path d="M192.398 -2.09863e-05C194.975 -0.127483 196.023 1.01968 196.108 2.94578L196.675 14.6865C196.774 16.6409 195.839 17.873 193.262 18.0005L189.466 18.1846C186.888 18.3121 185.812 17.1649 185.727 15.2247L185.161 3.48395C185.061 1.55785 186.024 0.325716 188.602 0.198254L192.398 0.0141415V-2.09863e-05ZM192.1 3.71055C192.072 3.2007 191.874 3.01659 191.335 3.04492L189.976 3.11573C189.409 3.14405 189.225 3.35649 189.254 3.86634L189.763 14.5024C189.792 15.0122 189.99 15.1963 190.556 15.168L191.916 15.0972C192.454 15.0689 192.638 14.8564 192.624 14.3607L192.114 3.72472L192.1 3.71055Z" fill="black"/>
<path d="M230.452 13.0578C230.523 12.5479 230.353 12.3638 229.787 12.2788L227.322 11.9389C224.858 11.599 224.178 10.2394 224.447 8.34167L225.014 4.27703C225.283 2.36509 226.43 1.33123 228.979 1.68529L232.407 2.16682C234.956 2.52088 235.777 3.83799 235.508 5.74993L235.182 8.07258L231.174 7.52024L231.415 5.74993C231.486 5.24008 231.316 5.02764 230.75 4.94267L229.801 4.81521C229.234 4.73023 229.022 4.90018 228.951 5.41003L228.512 8.5541C228.441 9.06395 228.611 9.24807 229.178 9.33304L231.585 9.67294C234.078 10.027 234.786 11.2875 234.531 13.1994L233.95 17.4057C233.681 19.3459 232.534 20.3798 229.985 20.0257L226.586 19.5584C224.037 19.2043 223.187 17.8872 223.456 15.9469L223.782 13.6526L227.79 14.2191L227.549 15.9894C227.478 16.4993 227.648 16.7117 228.214 16.7967L229.163 16.9241C229.73 17.0091 229.942 16.8392 230.013 16.3293L230.466 13.1003L230.452 13.0578Z" fill="black"/>
<path d="M260.009 8.03012L256.285 22.4334C255.789 24.3311 254.514 25.2234 252.022 24.5719L248.354 23.623C245.861 22.9716 245.195 21.5836 245.691 19.6859L249.416 5.28259L253.339 6.28813L249.756 20.1674C249.628 20.6631 249.77 20.9038 250.294 21.0313L251.611 21.3712C252.163 21.5128 252.404 21.3712 252.532 20.8755L256.115 6.99625L260.038 8.01595L260.009 8.03012Z" fill="black"/>
<path d="M280.248 14.9839C282.655 15.9186 283.151 17.3774 282.457 19.176L280.488 24.2745C279.78 26.1015 278.435 26.8521 276.027 25.9173L272.855 24.6994L270.589 30.5626L266.836 29.1181L273.322 12.3072L280.248 14.9839ZM278.463 18.2413C278.647 17.7598 278.534 17.5048 278.038 17.3207L275.999 16.5418L273.917 21.9377L275.956 22.7166C276.466 22.9149 276.721 22.8016 276.905 22.3201L278.477 18.2554L278.463 18.2413Z" fill="black"/>
<path d="M302.313 25.28C304.593 26.4697 304.919 27.9851 304.026 29.6987L301.491 34.5423C300.585 36.2701 299.154 36.865 296.874 35.6753L293.858 34.1033L290.94 39.6691L287.371 37.7997L295.727 21.8386L302.298 25.28H302.313ZM300.174 28.3108C300.415 27.8576 300.33 27.5885 299.848 27.3478L297.922 26.3422L295.246 31.4549L297.172 32.4604C297.653 32.7154 297.922 32.6304 298.149 32.1772L300.174 28.3108Z" fill="black"/>
<path d="M322.962 37.9272C325.086 39.3717 325.242 40.9155 324.165 42.5158L317.552 52.2313C316.447 53.8458 314.96 54.2707 312.835 52.8261L309.691 50.6876C307.567 49.243 307.383 47.6851 308.488 46.0706L315.101 36.3551C316.178 34.7689 317.693 34.3582 319.832 35.8028L322.976 37.9413L322.962 37.9272ZM320.497 40.703C320.781 40.2781 320.738 40.0091 320.285 39.6975L319.166 38.9327C318.699 38.6211 318.415 38.6636 318.132 39.0885L312.141 47.8976C311.858 48.3224 311.901 48.5915 312.382 48.9173L313.501 49.682C313.94 49.9795 314.223 49.937 314.507 49.5121L320.497 40.703Z" fill="black"/>
<path d="M333.159 60.049L332.62 59.5816L328.216 64.6801L325.171 62.0459L336.954 48.4074L342.577 53.2651C344.531 54.9505 344.503 56.4942 343.242 57.9529L339.942 61.7626C338.923 62.9381 337.733 63.3347 336.26 62.5557L334.178 69.8211L330.893 66.9886L333.159 60.0348V60.049ZM334.504 57.4148L336.161 58.8452C336.572 59.1992 336.827 59.1992 337.167 58.8168L339.815 55.7436C340.155 55.3612 340.127 55.0779 339.716 54.7239L338.059 53.2935L334.504 57.4148Z" fill="black"/>
<path d="M359.388 74.1407L357.136 71.7189L346.132 81.9725L343.37 79.0126L354.374 68.7589L352.136 66.3513L354.317 64.326L361.569 72.1154L359.388 74.1407Z" fill="black"/>
</g>
<path d="M19.4975 342.226C20.2622 346.158 20.6718 348.397 20.7264 348.944C20.7264 349.817 20.4533 351.647 19.9072 354.432C18.7056 360.44 17.0399 368.987 14.9099 380.074C14.3637 382.859 14.036 384.307 13.9268 384.416C13.8722 384.471 13.8176 384.471 13.763 384.416C13.6537 384.307 12.9711 380.948 11.7149 374.339C11.1688 371.499 10.3495 367.267 9.25724 361.641C8.16494 355.962 7.34571 351.702 6.79956 348.862C5.1065 340.287 4.15074 335.481 3.93228 334.443C3.49536 333.132 3.38613 332.177 3.60459 331.576C3.82305 330.921 4.66958 330.593 6.14418 330.593C6.5811 330.647 7.53687 330.675 9.01147 330.675C10.4861 330.675 11.6057 330.675 12.3703 330.675C12.7526 330.675 13.2714 330.675 13.9268 330.675C14.6368 330.62 15.101 330.593 15.3195 330.593C15.538 330.593 15.8383 330.647 16.2206 330.757C16.603 330.866 16.876 331.03 17.0399 331.248C17.2037 331.467 17.3676 331.794 17.5314 332.231C17.6953 332.614 17.8591 333.132 18.0229 333.788C18.3506 335.972 18.8422 338.785 19.4975 342.226ZM40.6335 330.593C41.8351 330.593 42.627 330.866 43.0093 331.412C43.1731 331.521 43.2277 331.876 43.1731 332.477C43.1185 333.078 43.0639 333.542 43.0093 333.87C42.9547 334.197 42.8454 334.662 42.6816 335.262C42.5178 335.863 42.4358 336.246 42.4358 336.409C42.3812 336.628 40.9612 343.864 38.1759 358.119C38.012 358.883 37.7936 360.003 37.5205 361.478C37.2474 362.898 37.0563 363.908 36.947 364.509C34.6532 376.306 33.479 382.395 33.4244 382.777C33.3697 382.941 33.2878 383.433 33.1786 384.252C33.124 385.017 33.0421 385.536 32.9328 385.809C32.8782 386.027 32.7144 386.355 32.4413 386.792C32.2228 387.229 31.9225 387.529 31.5401 387.693C31.1578 387.857 30.639 387.939 29.9836 387.939C29.4921 387.939 28.7275 387.939 27.6898 387.939C26.6521 387.884 25.9148 387.857 25.4779 387.857C24.8771 387.857 23.9214 387.884 22.6106 387.939C21.3545 387.939 20.3987 387.939 19.7433 387.939C18.9787 387.939 18.5418 387.747 18.4326 387.365C18.3779 386.983 18.4872 386.409 18.7602 385.645C19.0333 384.607 19.8799 380.347 21.2998 372.865C22.3375 367.458 23.1294 363.416 23.6756 360.74C26.7886 344.574 28.3725 336.382 28.4271 336.164C28.4271 336 28.4817 335.59 28.5909 334.935C28.7002 334.225 28.7821 333.679 28.8367 333.296C28.9459 332.859 29.1098 332.422 29.3282 331.986C29.5467 331.494 29.7925 331.166 30.0655 331.002C30.3386 330.784 30.8028 330.647 31.4582 330.593C32.1136 330.538 32.9601 330.538 33.9978 330.593C35.0355 330.647 35.5817 330.675 35.6363 330.675C36.2916 330.675 37.1928 330.675 38.3397 330.675C39.4866 330.62 40.2512 330.593 40.6335 330.593ZM50.4879 336.901C50.4879 336.737 50.4606 336.327 50.406 335.672C50.406 334.962 50.406 334.389 50.406 333.952C50.406 333.46 50.4333 332.969 50.4879 332.477C50.5425 331.931 50.6245 331.549 50.7337 331.33C50.8975 331.112 51.116 330.948 51.3891 330.839C51.7168 330.729 52.0717 330.675 52.4541 330.675C52.891 330.62 53.2733 330.593 53.601 330.593C53.9287 330.593 54.311 330.62 54.7479 330.675C55.2394 330.675 55.5398 330.675 55.649 330.675C56.5229 330.729 57.6971 330.729 59.1717 330.675C60.7009 330.62 61.6294 330.593 61.9571 330.593C62.8855 330.593 63.5409 330.784 63.9232 331.166C64.3601 331.549 64.5786 332.067 64.5786 332.723C64.5786 333.324 64.5786 334.034 64.5786 334.853C64.524 335.781 64.4967 340.123 64.4967 347.879C64.4967 367.595 64.524 379.2 64.5786 382.696C64.5786 382.696 64.5786 383.132 64.5786 384.006C64.6332 384.826 64.6332 385.508 64.5786 386.054C64.5786 386.601 64.4967 386.983 64.3328 387.201C64.169 387.42 63.8959 387.611 63.5136 387.775C63.1313 387.884 62.6397 387.939 62.039 387.939C61.4928 387.993 61.0013 388.021 60.5644 388.021C60.1275 388.021 59.5813 387.993 58.9259 387.939C58.3252 387.939 57.9702 387.939 57.8609 387.939C56.0586 387.884 54.6387 387.884 53.601 387.939C52.0171 387.993 51.0614 387.775 50.7337 387.283C50.406 386.737 50.2968 385.59 50.406 383.842C50.4606 382.477 50.4879 377.589 50.4879 369.178C50.5425 355.962 50.5425 345.202 50.4879 336.901ZM81.3727 387.857C80.9904 387.857 77.9592 387.884 72.2793 387.939C71.1324 387.884 70.3405 387.693 69.9035 387.365C69.4666 386.983 69.2482 386.464 69.2482 385.809C69.3028 385.099 69.3574 384.279 69.412 383.351C69.412 382.477 69.3847 381.276 69.3301 379.746C69.3301 378.163 69.3301 377.016 69.3301 376.306C69.3301 375.814 69.3847 375.404 69.4939 375.077C69.6578 374.694 69.767 374.421 69.8216 374.258C69.9308 374.094 70.1766 373.984 70.5589 373.93C70.9412 373.821 71.187 373.766 71.2962 373.766C71.4601 373.711 71.8424 373.711 72.4431 373.766C73.0439 373.766 73.4262 373.766 73.59 373.766C77.5769 373.821 81.5638 373.793 85.5507 373.684C86.2061 373.684 86.643 373.766 86.8615 373.93C87.1346 374.094 87.2711 374.367 87.2711 374.749C87.3257 375.131 87.3257 375.623 87.2711 376.224C87.2165 378.244 87.2165 380.62 87.2711 383.351C87.2711 383.46 87.2711 383.679 87.2711 384.006C87.3257 384.334 87.353 384.58 87.353 384.744C87.353 384.907 87.3257 385.153 87.2711 385.481C87.2711 385.809 87.2438 386.082 87.1892 386.3C87.1346 386.464 87.0526 386.682 86.9434 386.956C86.8888 387.174 86.7796 387.365 86.6157 387.529C86.4519 387.638 86.2607 387.72 86.0423 387.775C85.6053 387.939 84.8134 387.993 83.6665 387.939C83.448 387.939 83.0657 387.939 82.5196 387.939C82.0281 387.884 81.6458 387.857 81.3727 387.857ZM69.9855 352.466C70.3131 352.302 70.7501 352.22 71.2962 352.22C71.897 352.166 72.607 352.166 73.4262 352.22C74.3 352.22 74.8189 352.22 74.9827 352.22C75.092 352.22 75.447 352.22 76.0477 352.22C76.6485 352.166 77.1127 352.166 77.4404 352.22C77.8227 352.22 78.2323 352.275 78.6692 352.384C79.1608 352.439 79.5158 352.548 79.7342 352.712C79.9527 352.93 80.0892 353.313 80.1438 353.859C80.2531 354.405 80.3077 354.924 80.3077 355.415C80.3077 355.852 80.2804 356.426 80.2258 357.136C80.2258 357.846 80.2258 358.283 80.2258 358.447C80.1712 359.102 80.1712 360.03 80.2258 361.232C80.2804 362.433 80.3077 363.28 80.3077 363.771C80.3077 364.7 80.1165 365.383 79.7342 365.82C79.3519 366.202 78.8331 366.393 78.1777 366.393C77.5223 366.338 76.785 366.311 75.9658 366.311C75.4743 366.311 74.737 366.338 73.7539 366.393C72.7708 366.393 72.0335 366.393 71.542 366.393C71.1051 366.338 70.7228 366.256 70.3951 366.147C70.122 365.983 69.9035 365.82 69.7397 365.656C69.5758 365.492 69.4666 365.246 69.412 364.918C69.3574 364.536 69.3301 364.236 69.3301 364.017C69.3301 363.744 69.3301 363.362 69.3301 362.87C69.3847 362.324 69.412 361.942 69.412 361.723C69.412 360.85 69.3847 359.648 69.3301 358.119C69.3301 356.535 69.3301 355.415 69.3301 354.76C69.3301 353.613 69.5485 352.848 69.9855 352.466ZM87.2711 341.57C87.3257 343.045 87.0799 344.001 86.5338 344.438C86.2061 344.602 85.7692 344.711 85.223 344.765C84.7315 344.82 84.0215 344.847 83.0931 344.847C82.2192 344.793 81.755 344.765 81.7004 344.765C77.9866 344.711 74.9281 344.738 72.5251 344.847C71.3235 344.847 70.477 344.684 69.9855 344.356C69.5485 344.028 69.3301 343.537 69.3301 342.881C69.3301 342.171 69.3301 341.27 69.3301 340.178C69.4393 340.069 69.4666 338.922 69.412 336.737C69.3574 334.498 69.3301 333.324 69.3301 333.214C69.3301 332.231 69.4393 331.576 69.6578 331.248C69.9308 330.866 70.3131 330.675 70.8047 330.675C71.3508 330.675 72.0608 330.675 72.9347 330.675C76.7577 330.729 80.5808 330.702 84.4038 330.593C85.1684 330.593 85.7419 330.675 86.1242 330.839C86.5611 330.948 86.8615 331.166 87.0253 331.494C87.1892 331.822 87.2711 332.259 87.2711 332.805C87.3257 333.296 87.3257 333.87 87.2711 334.525C87.1619 336.874 87.1619 339.222 87.2711 341.57ZM108.822 387.939C107.62 387.939 106.774 387.666 106.282 387.119C106.064 386.792 105.927 386.355 105.873 385.809C105.818 385.262 105.818 384.498 105.873 383.515C105.927 382.532 105.955 382.04 105.955 382.04C105.955 381.822 105.955 373.274 105.955 356.398C105.955 352.848 105.982 350.118 106.036 348.206C106.036 347.605 106.009 347.114 105.955 346.732C105.955 346.295 105.873 345.94 105.709 345.667C105.545 345.394 105.408 345.202 105.299 345.093C105.245 344.929 104.999 344.82 104.562 344.765C104.18 344.711 103.879 344.684 103.661 344.684C103.497 344.629 103.087 344.629 102.432 344.684C101.831 344.684 101.394 344.684 101.121 344.684C97.6804 344.793 95.7961 344.738 95.4685 344.52C95.1954 344.41 94.9769 344.219 94.8131 343.946C94.7038 343.673 94.6219 343.345 94.5673 342.963C94.5127 342.581 94.4854 342.253 94.4854 341.98C94.4854 341.652 94.4854 341.243 94.4854 340.751C94.54 340.26 94.5673 339.959 94.5673 339.85C94.6219 338.976 94.6219 337.747 94.5673 336.164C94.5673 334.525 94.5673 333.542 94.5673 333.214C94.5127 332.286 94.6219 331.631 94.895 331.248C95.2227 330.811 95.6596 330.593 96.2058 330.593C96.8065 330.593 97.5438 330.62 98.4177 330.675C99.2915 330.675 103.115 330.675 109.887 330.675C120.428 330.675 125.834 330.675 126.107 330.675C126.217 330.675 126.572 330.675 127.172 330.675C127.828 330.62 128.347 330.593 128.729 330.593C129.111 330.593 129.521 330.647 129.958 330.757C130.449 330.811 130.777 330.921 130.941 331.084C131.105 331.248 131.214 331.631 131.269 332.231C131.378 332.777 131.432 333.296 131.432 333.788C131.432 334.279 131.405 334.907 131.35 335.672C131.35 336.382 131.35 336.792 131.35 336.901C131.35 337.502 131.35 338.376 131.35 339.522C131.405 340.615 131.432 341.407 131.432 341.898C131.432 342.39 131.405 342.827 131.35 343.209C131.296 343.537 131.159 343.81 130.941 344.028C130.722 344.192 130.531 344.356 130.367 344.52C130.258 344.629 129.985 344.711 129.548 344.765C129.166 344.765 128.893 344.793 128.729 344.847C128.565 344.847 128.183 344.847 127.582 344.847C127.036 344.793 126.681 344.765 126.517 344.765C123.131 344.711 121.301 344.738 121.028 344.847C120.755 344.957 120.509 345.148 120.291 345.421C120.127 345.639 120.018 345.967 119.963 346.404C119.909 346.786 119.881 347.141 119.881 347.469C119.881 347.742 119.881 348.124 119.881 348.616C119.936 349.107 119.963 349.435 119.963 349.599C119.963 349.981 119.963 355.907 119.963 367.376C119.963 376.661 119.991 382.313 120.045 384.334C120.1 384.989 120.1 385.536 120.045 385.972C119.991 386.355 119.854 386.682 119.636 386.956C119.472 387.229 119.308 387.447 119.144 387.611C119.035 387.72 118.789 387.802 118.407 387.857C118.024 387.911 117.697 387.939 117.424 387.939C117.205 387.939 116.796 387.939 116.195 387.939C115.594 387.884 115.13 387.857 114.802 387.857C114.038 387.857 112.973 387.884 111.607 387.939C110.296 387.939 109.368 387.939 108.822 387.939ZM165.212 387.939C163.683 387.939 162.645 387.666 162.099 387.119C161.935 386.846 161.799 386.464 161.689 385.972C161.635 385.426 161.607 384.962 161.607 384.58C161.607 384.143 161.607 383.597 161.607 382.941C161.662 382.286 161.689 381.876 161.689 381.712C161.689 381.33 161.689 374.394 161.689 360.904C161.689 344.902 161.689 336.792 161.689 336.573C161.689 336.409 161.662 336 161.607 335.344C161.607 334.634 161.607 334.061 161.607 333.624C161.607 333.132 161.635 332.641 161.689 332.149C161.799 331.603 161.962 331.248 162.181 331.084C162.345 330.921 162.645 330.811 163.082 330.757C163.574 330.647 164.01 330.593 164.393 330.593C164.83 330.593 165.349 330.62 165.949 330.675C166.55 330.675 166.905 330.675 167.014 330.675C169.636 330.729 171.902 330.702 173.814 330.593C175.179 330.538 176.08 330.729 176.517 331.166C176.954 331.549 177.391 332.422 177.828 333.788C177.883 334.006 177.937 334.17 177.992 334.279C178.593 336.027 179.521 338.539 180.777 341.816C182.033 345.039 182.825 347.087 183.153 347.96C183.645 349.271 183.972 349.954 184.136 350.008C184.3 350.118 184.382 349.954 184.382 349.517C184.436 349.244 184.464 348.425 184.464 347.059C184.409 346.459 184.382 344.629 184.382 341.57C184.382 338.512 184.355 336.164 184.3 334.525C184.245 333.105 184.382 332.122 184.71 331.576C185.092 330.975 185.693 330.675 186.512 330.675C187.331 330.675 188.369 330.675 189.625 330.675C191.154 330.729 193.148 330.702 195.605 330.593C196.37 330.593 196.943 330.675 197.326 330.839C197.763 330.948 198.063 331.166 198.227 331.494C198.391 331.822 198.473 332.231 198.473 332.723C198.527 333.214 198.527 333.815 198.473 334.525C198.473 336 198.473 341.652 198.473 351.483C198.473 371.308 198.473 381.276 198.473 381.385C198.473 381.439 198.473 381.986 198.473 383.023C198.527 384.061 198.527 384.935 198.473 385.645C198.473 386.3 198.391 386.764 198.227 387.037C198.118 387.256 197.926 387.447 197.653 387.611C197.38 387.72 197.025 387.802 196.588 387.857C196.206 387.911 195.878 387.939 195.605 387.939C195.332 387.939 194.95 387.939 194.458 387.939C193.967 387.884 193.666 387.857 193.557 387.857C191.809 387.802 189.734 387.829 187.331 387.939C186.949 387.939 186.594 387.939 186.266 387.939C185.993 387.884 185.72 387.802 185.447 387.693C185.228 387.584 185.037 387.529 184.873 387.529C184.71 387.474 184.518 387.338 184.3 387.119C184.136 386.846 184 386.682 183.89 386.628C183.836 386.573 183.726 386.382 183.563 386.054C183.453 385.672 183.371 385.454 183.317 385.399C183.317 385.29 183.235 385.017 183.071 384.58C182.907 384.088 182.798 383.788 182.743 383.679C182.525 382.969 181.05 379.009 178.32 371.8C176.9 368.086 176.135 366.202 176.026 366.147C175.753 366.038 175.643 367.786 175.698 371.39C175.753 371.554 175.78 371.636 175.78 371.636C175.78 379.064 175.78 383.406 175.78 384.662C175.835 386.246 175.589 387.201 175.043 387.529C174.497 387.802 173.35 387.911 171.602 387.857C169.909 387.802 167.779 387.829 165.212 387.939ZM216.095 334.279C216.313 334.771 216.75 336.764 217.406 340.26C217.952 343.209 219.645 351.92 222.485 366.393C222.649 367.321 222.731 368.223 222.731 369.096C222.731 369.916 222.703 370.489 222.649 370.817C222.649 371.144 222.512 371.909 222.239 373.111C222.021 374.258 221.884 374.995 221.829 375.323C221.556 376.633 221.174 378.545 220.682 381.057C220.246 383.515 220 384.935 219.945 385.317C219.727 386.246 219.399 386.928 218.962 387.365C218.58 387.747 218.061 387.939 217.406 387.939C216.805 387.939 216.067 387.939 215.194 387.939C213.828 387.829 211.507 387.829 208.23 387.939C206.756 387.939 205.909 387.638 205.691 387.037C205.472 386.382 205.581 385.399 206.018 384.088C206.237 383.269 207.083 379.009 208.558 371.308C212.108 353.012 214.347 341.434 215.276 336.573C215.658 335.044 215.931 334.279 216.095 334.279ZM220.846 332.887C220.628 332.013 220.573 331.439 220.682 331.166C220.792 330.839 221.065 330.675 221.502 330.675C221.939 330.62 222.539 330.62 223.304 330.675C224.997 330.729 227.837 330.702 231.824 330.593C232.261 330.593 232.643 330.62 232.971 330.675C233.353 330.729 233.654 330.866 233.872 331.084C234.145 331.303 234.364 331.467 234.527 331.576C234.691 331.685 234.828 331.958 234.937 332.395C235.046 332.832 235.101 333.132 235.101 333.296C235.155 333.406 235.21 333.761 235.265 334.361C235.374 334.962 235.456 335.317 235.51 335.426C235.62 336.082 236.384 340.15 237.804 347.633L238.951 353.695C239.224 355.115 239.634 357.245 240.18 360.085C240.781 362.925 241.218 365.055 241.491 366.475C243.402 376.469 244.604 382.668 245.095 385.071C245.259 385.781 245.314 386.355 245.259 386.792C245.205 387.229 245.041 387.529 244.768 387.693C244.495 387.857 244.112 387.939 243.621 387.939C243.129 387.993 242.528 387.993 241.818 387.939C239.252 387.829 236.903 387.829 234.773 387.939C233.845 387.939 233.107 387.829 232.561 387.611C232.07 387.392 231.742 387.174 231.578 386.956C231.414 386.737 231.169 386.218 230.841 385.399C230.568 384.525 230.349 383.897 230.185 383.515C230.076 383.296 228.902 380.948 226.663 376.469C225.024 373.247 224.205 371.636 224.205 371.636C224.26 371.199 224.587 371.063 225.188 371.226C225.844 371.336 226.499 371.281 227.154 371.063C227.864 370.844 228.165 370.271 228.055 369.342C228.001 368.905 227.837 368.086 227.564 366.885C227.291 365.683 227.127 365 227.072 364.836C226.854 363.416 226.089 359.293 224.779 352.466C223.468 345.585 222.43 340.342 221.666 336.737C221.392 335.426 221.119 334.143 220.846 332.887ZM262.986 387.939C261.785 387.939 260.938 387.666 260.447 387.119C260.228 386.792 260.092 386.355 260.037 385.809C259.983 385.262 259.983 384.498 260.037 383.515C260.092 382.532 260.119 382.04 260.119 382.04C260.119 381.822 260.119 373.274 260.119 356.398C260.119 352.848 260.146 350.118 260.201 348.206C260.201 347.605 260.174 347.114 260.119 346.732C260.119 346.295 260.037 345.94 259.873 345.667C259.71 345.394 259.573 345.202 259.464 345.093C259.409 344.929 259.163 344.82 258.726 344.765C258.344 344.711 258.044 344.684 257.825 344.684C257.661 344.629 257.252 344.629 256.596 344.684C255.996 344.684 255.559 344.684 255.286 344.684C251.845 344.793 249.961 344.738 249.633 344.52C249.36 344.41 249.142 344.219 248.978 343.946C248.868 343.673 248.787 343.345 248.732 342.963C248.677 342.581 248.65 342.253 248.65 341.98C248.65 341.652 248.65 341.243 248.65 340.751C248.705 340.26 248.732 339.959 248.732 339.85C248.787 338.976 248.787 337.747 248.732 336.164C248.732 334.525 248.732 333.542 248.732 333.214C248.677 332.286 248.787 331.631 249.06 331.248C249.387 330.811 249.824 330.593 250.37 330.593C250.971 330.593 251.708 330.62 252.582 330.675C253.456 330.675 257.279 330.675 264.051 330.675C274.592 330.675 279.999 330.675 280.272 330.675C280.381 330.675 280.736 330.675 281.337 330.675C281.992 330.62 282.511 330.593 282.894 330.593C283.276 330.593 283.686 330.647 284.122 330.757C284.614 330.811 284.942 330.921 285.106 331.084C285.269 331.248 285.379 331.631 285.433 332.231C285.542 332.777 285.597 333.296 285.597 333.788C285.597 334.279 285.57 334.907 285.515 335.672C285.515 336.382 285.515 336.792 285.515 336.901C285.515 337.502 285.515 338.376 285.515 339.522C285.57 340.615 285.597 341.407 285.597 341.898C285.597 342.39 285.57 342.827 285.515 343.209C285.461 343.537 285.324 343.81 285.106 344.028C284.887 344.192 284.696 344.356 284.532 344.52C284.423 344.629 284.15 344.711 283.713 344.765C283.331 344.765 283.057 344.793 282.894 344.847C282.73 344.847 282.347 344.847 281.747 344.847C281.201 344.793 280.846 344.765 280.682 344.765C277.296 344.711 275.466 344.738 275.193 344.847C274.92 344.957 274.674 345.148 274.456 345.421C274.292 345.639 274.183 345.967 274.128 346.404C274.073 346.786 274.046 347.141 274.046 347.469C274.046 347.742 274.046 348.124 274.046 348.616C274.101 349.107 274.128 349.435 274.128 349.599C274.128 349.981 274.128 355.907 274.128 367.376C274.128 376.661 274.155 382.313 274.21 384.334C274.264 384.989 274.264 385.536 274.21 385.972C274.155 386.355 274.019 386.682 273.8 386.956C273.636 387.229 273.473 387.447 273.309 387.611C273.199 387.72 272.954 387.802 272.571 387.857C272.189 387.911 271.861 387.939 271.588 387.939C271.37 387.939 270.96 387.939 270.359 387.939C269.759 387.884 269.294 387.857 268.967 387.857C268.202 387.857 267.137 387.884 265.772 387.939C264.461 387.939 263.533 387.939 262.986 387.939ZM295.681 387.939C294.479 387.939 293.66 387.693 293.223 387.201C293.004 386.874 292.868 386.464 292.813 385.972C292.759 385.426 292.731 384.962 292.731 384.58C292.731 384.143 292.731 383.597 292.731 382.941C292.786 382.286 292.813 381.849 292.813 381.631C292.813 381.412 292.813 373.193 292.813 356.972C292.813 344.192 292.786 336.601 292.731 334.197C292.677 332.887 292.813 331.986 293.141 331.494C293.523 330.948 294.069 330.675 294.779 330.675C295.544 330.62 296.5 330.62 297.647 330.675C298.848 330.729 300.978 330.702 304.037 330.593C304.801 330.593 305.375 330.675 305.757 330.839C306.194 330.948 306.494 331.166 306.658 331.494C306.822 331.822 306.904 332.259 306.904 332.805C306.959 333.296 306.959 333.87 306.904 334.525C306.904 335.836 306.904 341.161 306.904 350.5C306.904 371.144 306.904 381.521 306.904 381.631C306.904 381.849 306.904 382.286 306.904 382.941C306.959 383.597 306.986 384.17 306.986 384.662C306.986 385.099 306.959 385.59 306.904 386.136C306.849 386.628 306.74 386.983 306.576 387.201C306.358 387.42 306.003 387.611 305.511 387.775C305.02 387.884 304.583 387.939 304.2 387.939C303.818 387.939 303.272 387.939 302.562 387.939C301.852 387.884 301.442 387.857 301.333 387.857C300.623 387.857 299.64 387.884 298.384 387.939C297.128 387.939 296.227 387.939 295.681 387.939ZM314.012 370.08V348.452C314.067 344.41 315.268 340.833 317.617 337.72C320.02 334.552 323.16 332.395 327.038 331.248C327.802 331.03 328.403 331.002 328.84 331.166C329.331 331.276 329.632 331.521 329.741 331.904C329.905 332.286 330.014 332.75 330.069 333.296C330.123 333.842 330.123 334.416 330.069 335.017C330.014 335.29 329.987 335.481 329.987 335.59C329.932 336.682 329.932 338.812 329.987 341.98C330.041 343.509 329.714 344.82 329.004 345.912C328.348 347.005 328.021 348.07 328.021 349.107C328.021 349.271 328.021 351.456 328.021 355.661C328.021 359.867 328.021 362.051 328.021 362.215C328.021 367.513 328.075 370.353 328.185 370.735C328.294 371.172 328.594 371.827 329.086 372.701C329.632 373.575 329.932 374.64 329.987 375.896C329.987 376.661 329.96 377.999 329.905 379.91C329.905 381.767 329.932 383.078 329.987 383.842C330.041 385.809 329.823 386.983 329.331 387.365C328.84 387.693 327.638 387.502 325.727 386.792C322.177 385.481 319.337 383.324 317.207 380.32C315.132 377.261 314.067 373.848 314.012 370.08ZM338.097 331.412C341.866 332.614 344.897 334.771 347.191 337.884C349.484 340.997 350.659 344.52 350.713 348.452V370.08C350.659 374.066 349.484 377.616 347.191 380.729C344.897 383.842 341.838 385.972 338.015 387.119C337.415 387.283 336.896 387.392 336.459 387.447C336.076 387.447 335.776 387.365 335.558 387.201C335.339 387.037 335.148 386.874 334.984 386.71C334.875 386.491 334.793 386.191 334.738 385.809C334.738 385.372 334.738 385.017 334.738 384.744C334.738 384.416 334.738 383.979 334.738 383.433C334.793 382.887 334.82 382.477 334.82 382.204C334.82 381.494 334.793 380.456 334.738 379.091C334.738 377.671 334.738 376.606 334.738 375.896C334.793 374.64 335.121 373.52 335.721 372.537C336.377 371.554 336.705 370.626 336.705 369.752C336.759 368.441 336.759 365.11 336.705 359.757C336.705 354.405 336.705 351.073 336.705 349.763C336.705 348.616 336.65 347.906 336.541 347.633C336.486 347.305 336.131 346.622 335.476 345.585C335.203 345.202 335.011 344.711 334.902 344.11C334.793 343.455 334.738 342.909 334.738 342.472C334.738 342.035 334.738 341.407 334.738 340.587C334.793 339.714 334.82 339.195 334.82 339.031C334.82 338.376 334.793 337.392 334.738 336.082C334.738 334.716 334.738 333.679 334.738 332.969C334.738 331.767 335.011 331.112 335.558 331.002C336.158 330.839 337.005 330.975 338.097 331.412ZM361.458 387.939C359.929 387.939 358.891 387.666 358.345 387.119C358.181 386.846 358.044 386.464 357.935 385.972C357.881 385.426 357.853 384.962 357.853 384.58C357.853 384.143 357.853 383.597 357.853 382.941C357.908 382.286 357.935 381.876 357.935 381.712C357.935 381.33 357.935 374.394 357.935 360.904C357.935 344.902 357.935 336.792 357.935 336.573C357.935 336.409 357.908 336 357.853 335.344C357.853 334.634 357.853 334.061 357.853 333.624C357.853 333.132 357.881 332.641 357.935 332.149C358.044 331.603 358.208 331.248 358.427 331.084C358.591 330.921 358.891 330.811 359.328 330.757C359.819 330.647 360.256 330.593 360.639 330.593C361.076 330.593 361.594 330.62 362.195 330.675C362.796 330.675 363.151 330.675 363.26 330.675C365.882 330.729 368.148 330.702 370.06 330.593C371.425 330.538 372.326 330.729 372.763 331.166C373.2 331.549 373.637 332.422 374.074 333.788C374.129 334.006 374.183 334.17 374.238 334.279C374.839 336.027 375.767 338.539 377.023 341.816C378.279 345.039 379.071 347.087 379.399 347.96C379.89 349.271 380.218 349.954 380.382 350.008C380.546 350.118 380.628 349.954 380.628 349.517C380.682 349.244 380.71 348.425 380.71 347.059C380.655 346.459 380.628 344.629 380.628 341.57C380.628 338.512 380.6 336.164 380.546 334.525C380.491 333.105 380.628 332.122 380.955 331.576C381.338 330.975 381.938 330.675 382.758 330.675C383.577 330.675 384.615 330.675 385.871 330.675C387.4 330.729 389.393 330.702 391.851 330.593C392.616 330.593 393.189 330.675 393.571 330.839C394.008 330.948 394.309 331.166 394.473 331.494C394.636 331.822 394.718 332.231 394.718 332.723C394.773 333.214 394.773 333.815 394.718 334.525C394.718 336 394.718 341.652 394.718 351.483C394.718 371.308 394.718 381.276 394.718 381.385C394.718 381.439 394.718 381.986 394.718 383.023C394.773 384.061 394.773 384.935 394.718 385.645C394.718 386.3 394.636 386.764 394.473 387.037C394.363 387.256 394.172 387.447 393.899 387.611C393.626 387.72 393.271 387.802 392.834 387.857C392.452 387.911 392.124 387.939 391.851 387.939C391.578 387.939 391.196 387.939 390.704 387.939C390.213 387.884 389.912 387.857 389.803 387.857C388.055 387.802 385.98 387.829 383.577 387.939C383.195 387.939 382.84 387.939 382.512 387.939C382.239 387.884 381.966 387.802 381.693 387.693C381.474 387.584 381.283 387.529 381.119 387.529C380.955 387.474 380.764 387.338 380.546 387.119C380.382 386.846 380.245 386.682 380.136 386.628C380.082 386.573 379.972 386.382 379.809 386.054C379.699 385.672 379.617 385.454 379.563 385.399C379.563 385.29 379.481 385.017 379.317 384.58C379.153 384.088 379.044 383.788 378.989 383.679C378.771 382.969 377.296 379.009 374.565 371.8C373.145 368.086 372.381 366.202 372.272 366.147C371.999 366.038 371.889 367.786 371.944 371.39C371.999 371.554 372.026 371.636 372.026 371.636C372.026 379.064 372.026 383.406 372.026 384.662C372.08 386.246 371.835 387.201 371.289 387.529C370.742 387.802 369.596 387.911 367.848 387.857C366.155 387.802 364.025 387.829 361.458 387.939Z" fill="black"/>
<path d="M227.964 154.478L206.978 116H181.118L166 131.241H185.422L170.055 154.478H170.019L199.01 230L228 154.478H227.964Z" fill="black"/>
<defs>
<clipPath id="clip0_3_2">
<rect width="399" height="318" fill="white"/>
</clipPath>
</defs>
</svg>
